# xmcd CD database file
#
# Track frame offsets:
#	150
#	13120
#	25144
#	39143
#	51656
#	65411
#	78103
#	90711
#	103885
#	115950
#	129449
#	140561
#	151771
#	163152
#	174795
#	187173
#	200865
#	213241
#	226970
#	240422
#	253883
#	266931
#	279434
#	292314
#	307341
#	319222
#
# Disc length: 4407 seconds
#
# Revision: 0
# Processed by: cddbd v1.5.2PL0 Copyright (c) Steve Scherf et al.
# Submitted via: CDex 1.70beta2
#
DISCID=8811351a
DTITLE=Various Artist - Jazz Roads CD375 - Bebop - Woody's Boys Vol.3 (1945-49)
DYEAR=1900
DGENRE=Jazz
TTITLE0=Chubby Jackson's Rhythm - Head Quarters
TTITLE1=Chubby Jackson's Rhythm - Head Hunters
TTITLE2=Chubby Jackson's Rhythm - Sam's Caravan
TTITLE3=Chubby Jackson's Rhythm - Two Heads Better Than One
TTITLE4=Neal Hefti And His Orchestra - I Woke Up Dizzy
TTITLE5=Neal Hefti And His Orchestra - Sloppy Joe's
TTITLE6=Red Rodney's Be-Boppers - All God's Chillun Got Rhythm
TTITLE7=Red Rodney's Be-Boppers - Elevation
TTITLE8=Red Rodney's Be-Boppers - Fine And Dandy
TTITLE9=Red Rodney's Be-Boppers - The Goof And I
TTITLE10=Serge And His Be Bop Buddies - Pumpernickel
TTITLE11=Serge And His Be Bop Buddies - Gabardine And Serge
TTITLE12=Serge And His Be Bop Buddies - Serge's Urge
TTITLE13=Serge And His Be Bop Buddies - A Bar A Second
TTITLE14=Chubby Jackson And His Orchestra - The Happy Monster
TTITLE15=Chubby Jackson And His Orchestra - Follow The Leader
TTITLE16=Chubby Jackson And His Orchestra - L'ana
TTITLE17=Chubby Jackson And His Orchestra - "Mom" Jackson
TTITLE18=Flip Phillips Quintet - Cake
TTITLE19=Flip Phillips Quintet - Znarg Blues
TTITLE20=Flip Phillips Quintet - My Old Flame
TTITLE21=Flip Phillips Quintet - Cool
TTITLE22=Serge Chaloff And The Herdsmen - Chickasaw
TTITLE23=Serge Chaloff And The Herdsmen - Bop Scotch
TTITLE24=Serge Chaloff And The Herdsmen - The Most
TTITLE25=Serge Chaloff And The Herdsmen - Chasing The Bass
EXTD=
EXTT0=
EXTT1=
EXTT2=
EXTT3=
EXTT4=
EXTT5=
EXTT6=
EXTT7=
EXTT8=
EXTT9=
EXTT10=
EXTT11=
EXTT12=
EXTT13=
EXTT14=
EXTT15=
EXTT16=
EXTT17=
EXTT18=
EXTT19=
EXTT20=
EXTT21=
EXTT22=
EXTT23=
EXTT24=
EXTT25=
PLAYORDER=
